<svg width="20" height="14" viewBox="0 0 20 14" fill="none" xmlns="http://www.w3.org/2000/svg">
<path d="M17.5312 0.46875H2.46875C1.40625 0.46875 0.5625 1.3125 0.5625 2.375V11.625C0.5625 12.6875 1.40625 13.5313 2.46875 13.5313H17.5625C18.625 13.5313 19.4688 12.6875 19.4688 11.625V2.375C19.4688 1.3125 18.5938 0.46875 17.5312 0.46875ZM1.96875 2.75L7.65625 6.21875L1.96875 11.5313V2.75ZM10.25 5.84375C10.0938 5.9375 9.875 5.9375 9.71875 5.84375L3.21875 1.875H16.6562L10.25 5.84375ZM8.875 6.96875L9 7.0625C9.3125 7.25 9.65625 7.34375 10 7.34375C10.3438 7.34375 10.6875 7.25 11 7.0625L11.125 7L16.5313 12.1563H3.34375L8.875 6.96875ZM18.0625 11.625C18.0312 11.625 18.0625 11.625 18.0625 11.625L12.3438 6.21875L18.0312 2.65625V11.625H18.0625Z" fill="#0F4395"/>
</svg>
