<svg width="13" height="12" viewBox="0 0 13 12" fill="none" xmlns="http://www.w3.org/2000/svg">
<path d="M2.85417 1.33302C2.85399 1.68665 2.71334 2.02571 2.46317 2.27564C2.213 2.52556 1.87379 2.66587 1.52017 2.66569C1.16654 2.66551 0.827476 2.52487 0.577553 2.27469C0.327629 2.02452 0.187323 1.68531 0.1875 1.33169C0.187677 0.978068 0.328322 0.639 0.578496 0.389076C0.828669 0.139153 1.16788 -0.00115321 1.5215 -0.000976396C1.87512 -0.000799585 2.21419 0.139846 2.46411 0.390019C2.71404 0.640193 2.85434 0.979401 2.85417 1.33302ZM2.89417 3.65302H0.2275V11.9997H2.89417V3.65302ZM7.1075 3.65302H4.45417V11.9997H7.08083V7.61969C7.08083 5.17969 10.2608 4.95302 10.2608 7.61969V11.9997H12.8942V6.71302C12.8942 2.59969 8.1875 2.75302 7.08083 4.77302L7.1075 3.65302Z" fill="#111928"/>
</svg>
