<svg width="141" height="70" viewBox="0 0 141 70" fill="none" xmlns="http://www.w3.org/2000/svg">
<path d="M70.5364 33.3091C70.5062 33.3887 70.4352 33.4285 70.3643 33.4285C70.2933 33.4285 70.2224 33.3887 70.1922 33.3091C70.2525 33.4683 70.476 33.4683 70.5364 33.3091Z" fill="#0F4496"/>
<path d="M46.4669 30.208H46.4669L44.8208 30.8508L46.4669 30.208Z" fill="#0F4496"/>
<path d="M106.008 30.9688L109.542 31.9696L106.008 30.9688Z" fill="#0F4496"/>
<path d="M108.015 47.1336L104.972 45.0984L91.2925 35.9495C91.28 35.9412 91.2666 35.9349 91.2526 35.93C91.2489 35.9287 91.2452 35.9275 91.2414 35.9264C91.2263 35.9223 91.2108 35.9199 91.1951 35.9199H72.8108C72.597 36.7455 72.4689 37.5374 72.437 38.2659C72.3983 39.1513 71.6736 39.8448 70.7873 39.8448H69.9415C69.0552 39.8448 68.3305 39.1513 68.2918 38.2659C68.2599 37.5374 68.1318 36.7455 67.9179 35.9199H65.3423L63.654 40.352C63.4647 40.8493 62.98 41.1834 62.4479 41.1834H56.7453L52.4665 47.1774C52.3838 47.2933 52.4666 47.4543 52.609 47.4543H107.918C108.026 47.4543 108.093 47.3666 108.093 47.2774C108.093 47.2595 108.09 47.2416 108.085 47.2243C108.079 47.207 108.071 47.1904 108.059 47.175C108.048 47.1597 108.033 47.1457 108.015 47.1336ZM85.7489 43.0888C85.5255 43.5026 85.0947 43.7596 84.6245 43.7596H75.6788C75.084 43.7596 74.5727 43.3555 74.4355 42.777L73.8566 40.3383C73.7658 39.9557 73.8535 39.5594 74.0974 39.2508C74.3412 38.9423 74.7066 38.7654 75.0998 38.7654H83.024C83.4559 38.7654 83.8553 38.981 84.0922 39.3421L85.6928 41.7807C85.9508 42.1738 85.9723 42.6751 85.7489 43.0888Z" fill="#0F4496"/>
<path d="M30.3041 40.1295L33.438 38.6281L41.0762 34.9688C41.1393 34.9386 41.1706 34.8842 41.1753 34.828C41.1761 34.8186 41.1761 34.8092 41.1755 34.7999C41.1733 34.769 41.1629 34.7389 41.1459 34.7129C41.1373 34.6997 41.1272 34.6874 41.1151 34.6769C41.1149 34.6767 41.1148 34.6766 41.1147 34.6765C41.0857 34.6515 41.0472 34.6357 41.0006 34.6357H28.138C28.1259 34.6357 28.1139 34.6375 28.102 34.64C28.096 34.6412 28.0899 34.6424 28.084 34.6443L12.1659 39.805C12.1609 39.8066 12.1567 39.809 12.152 39.8109C12.1419 39.815 12.1325 39.8197 12.124 39.8251C12.1129 39.8319 12.1032 39.8397 12.0945 39.8483C12.0857 39.857 12.0781 39.8664 12.0717 39.8764C12.0377 39.93 12.0367 39.9995 12.0652 40.0548C12.0742 40.0723 12.086 40.0883 12.1007 40.1019C12.1299 40.1292 12.1701 40.1467 12.2199 40.1467H30.2284C30.2546 40.1467 30.2804 40.1408 30.3041 40.1295Z" fill="#0F4496"/>
<path d="M46.467 30.208H39.9368L36.0029 31.4145H43.3773L44.821 30.8508L46.467 30.208Z" fill="#95C11F"/>
<path d="M76.2854 30.8727L76.6582 31.5028L77.031 32.1328C77.0372 32.1433 77.0451 32.1522 77.0531 32.161C77.0553 32.1634 77.0569 32.1665 77.0592 32.1687C77.0618 32.1713 77.0652 32.173 77.068 32.1754C77.0879 32.1926 77.1109 32.206 77.1365 32.2128C77.1511 32.2167 77.1663 32.2188 77.1817 32.2188H84.2153C84.2257 32.2188 84.2357 32.218 84.2454 32.2164C84.255 32.2148 84.2642 32.2125 84.273 32.2096C84.2995 32.2006 84.3222 32.1857 84.3404 32.1669C84.3768 32.1293 84.3952 32.0762 84.3898 32.0241C84.3854 31.9807 84.3644 31.9382 84.3236 31.906L82.7215 30.6459C82.7044 30.6325 82.6852 30.6229 82.6648 30.6166C82.6482 30.6114 82.6309 30.6084 82.6132 30.6084H76.4361C76.3514 30.6084 76.2867 30.666 76.267 30.7378C76.265 30.7449 76.2635 30.7522 76.2625 30.7596C76.2614 30.7671 76.2608 30.7746 76.2607 30.7821C76.2605 30.8124 76.2682 30.8435 76.2854 30.8727Z" fill="#95C11F"/>
<path d="M84.7711 42.3858L83.8956 41.0519L83.1705 39.9472C83.1382 39.8979 83.0831 39.8682 83.0241 39.8682H75.1C75.0717 39.8682 75.0453 39.8748 75.022 39.8864C74.9521 39.9212 74.91 40.0012 74.9296 40.0837L75.5085 42.5223C75.5132 42.5421 75.5211 42.5604 75.5317 42.5767C75.5474 42.6012 75.569 42.6213 75.5943 42.6352C75.6195 42.6492 75.6485 42.657 75.6789 42.657H84.6247C84.6334 42.657 84.6419 42.6564 84.6501 42.6552C84.6831 42.6506 84.7122 42.637 84.7357 42.6176C84.7475 42.6078 84.7579 42.5966 84.7667 42.5843C84.7711 42.5782 84.7752 42.5717 84.7788 42.5651C84.8075 42.5118 84.8093 42.444 84.7711 42.3858Z" fill="#95C11F"/>
<path d="M62.4479 40.0814C62.4771 40.0814 62.5052 40.0747 62.5304 40.0624C62.5555 40.0501 62.5777 40.0322 62.5952 40.0101C62.6069 39.9953 62.6165 39.9787 62.6234 39.9605L64.8497 34.1161C64.8819 34.0315 64.8482 33.9439 64.7818 33.8967C64.7516 33.8752 64.7153 33.8613 64.6742 33.8613H57.0082L56.1968 34.5616C55.9648 34.7619 55.6683 34.8721 55.3619 34.8721H52.8116L46.6716 39.7464C46.6686 39.7489 46.6661 39.7517 46.6633 39.7542C46.6472 39.7786 46.6305 39.8025 46.6128 39.8259C46.5793 39.9129 46.6168 40.0161 46.6996 40.06C46.7167 40.069 46.7357 40.0756 46.7563 40.0789C46.7666 40.0806 46.7773 40.0814 46.7885 40.0814H62.4479Z" fill="#95C11F"/>
<path d="M128.75 41.5933C128.745 41.5845 128.74 41.5761 128.733 41.5682C128.714 41.5444 128.688 41.5248 128.653 41.5125L111.707 35.5476H105.939C105.783 35.5476 105.629 35.5193 105.484 35.4636L99.6767 33.2461H91.4274C91.3164 33.2461 91.2494 33.3375 91.252 33.4283C91.2521 33.4292 91.2523 33.4301 91.2523 33.4309C91.2547 33.4845 91.2811 33.5377 91.3373 33.5714L99.0829 38.2164L105.105 41.8279C105.123 41.8387 105.143 41.8448 105.164 41.8486C105.174 41.8504 105.185 41.8528 105.195 41.8528H128.595C128.632 41.8528 128.663 41.8431 128.689 41.827C128.706 41.8162 128.721 41.8026 128.733 41.787C128.745 41.7715 128.754 41.754 128.76 41.7355C128.763 41.7263 128.766 41.7168 128.767 41.7072C128.769 41.6976 128.77 41.6878 128.77 41.6781C128.77 41.6488 128.764 41.6195 128.75 41.5933Z" fill="#95C11F"/>
<path d="M7.40775 62.4109H10.8902V66.0946C10.4272 66.1349 9.78307 66.2154 9.21943 66.2154C5.67659 66.2154 4.36815 65.5511 4.36815 60.6998C4.36815 55.8083 5.69672 55.2849 9.48111 55.2849C10.5681 55.2849 12.9636 55.4862 13.8493 55.7882L14.574 52.2051C13.2253 51.8427 10.709 51.5811 9.0584 51.5811C3.1805 51.5811 0 53.4531 0 60.6596C0 67.8459 2.69739 69.9998 8.35385 69.9998C10.6285 69.9998 13.5876 69.6375 15.0571 69.1745V58.9284H7.40775L7.40775 62.4109Z" fill="#95C11F"/>
<path d="M28.8259 52.0039H24.8604L21.7402 55.2649H25.0415L28.8259 52.0039Z" fill="#95C11F"/>
<path d="M24.0549 56.3518C20.3309 56.3518 17.9556 57.8817 17.9556 63.0953C17.9556 68.4095 20.653 69.9998 24.2964 69.9998C25.7458 69.9998 27.6782 69.718 28.9665 69.2952L28.3828 66.3362C27.4367 66.5777 25.7257 66.7589 24.7997 66.7589C22.9276 66.7589 22.0017 66.3764 21.9413 64.3031H29.9529C30.3354 57.6401 28.3425 56.3317 24.0549 56.3518ZM21.9614 61.4446C22.2029 59.794 22.6055 59.2706 24.2159 59.2706C25.7458 59.2706 26.2088 59.6531 26.2692 61.4446H21.9614Z" fill="#95C11F"/>
<path d="M38.2868 56.3516C34.1603 56.3516 32.0063 57.8009 32.0063 63.095C32.0063 68.3892 34.0999 69.9794 38.2868 69.9996C42.5141 69.9996 44.6076 68.4093 44.6076 63.095C44.6076 57.821 42.494 56.3516 38.2868 56.3516ZM38.2868 66.9398C36.455 66.9398 35.9317 66.4165 35.9317 63.1554C35.9317 59.7736 36.455 59.371 38.2868 59.371C40.1388 59.371 40.6622 59.7736 40.6622 63.1554C40.6622 66.4165 40.1388 66.9398 38.2868 66.9398Z" fill="#95C11F"/>
<path d="M59.9265 56.8953C59.9265 52.5875 57.7323 51.5811 53.3239 51.5811C51.0493 51.5811 48.7746 51.9635 47.3252 52.4668L48.1707 55.9693C49.3181 55.5869 51.2908 55.2849 52.9012 55.2849C54.9142 55.2849 55.5785 55.7077 55.5785 57.2979C55.5785 59.633 55.0953 60.1161 46.7817 66.316V69.6375H60.007V66.0745H52.398C58.7388 61.8472 59.9265 60.6193 59.9265 56.8953Z" fill="#0F4496"/>
<path d="M63.7109 69.6171H67.7772V63.1353H74.2791V59.6528H67.7772V55.5665H76.5537V52.0035V51.9834H63.7109V69.6171Z" fill="#0F4496"/>
<path d="M81.6263 57.7009V56.6944H77.7412V69.6378H81.6263V61.1431C81.6263 60.2976 82.8341 59.8346 84.223 59.8346C84.847 59.8346 85.5315 59.8749 86.0347 60.0359V56.4126C85.5919 56.3522 85.1288 56.332 84.7665 56.332C82.8944 56.332 82.049 56.9359 81.6263 57.7009Z" fill="#0F4496"/>
<path d="M93.2412 56.3115C91.3289 56.3115 89.175 56.6135 87.6854 56.9959L88.2893 60.0758C89.3763 59.7537 90.8257 59.4719 92.3152 59.4719C94.8516 59.4719 95.2542 59.9751 95.2542 61.7667C94.2678 61.5654 93.2815 61.4446 92.3152 61.4446C89.2354 61.4446 87.2627 62.0284 87.2627 65.6719C87.2627 69.0738 88.5309 69.9796 92.7984 69.9796C94.6906 69.9796 97.1867 69.5972 98.938 68.9732V61.344C98.938 57.4992 97.1062 56.3115 93.2412 56.3115ZM95.2542 66.7589C94.6503 67.0004 93.825 67.1212 93.1003 67.1212C91.5705 67.1212 91.2484 66.8797 91.2484 65.5712C91.2484 64.2829 91.7516 64.1219 93.1406 64.1219C93.9256 64.1219 94.6503 64.142 95.2341 64.303H95.2542V66.7589Z" fill="#0F4496"/>
<path d="M108.741 56.332C106.406 56.332 103.829 56.8957 102.159 57.4996V69.6378H106.064V60.0158C106.708 59.8749 107.292 59.7944 107.916 59.7944C109.808 59.7944 110.19 60.4184 110.19 62.7736V69.6177H114.076V62.4716C114.076 57.8216 112.304 56.332 108.741 56.332Z" fill="#0F4496"/>
<path d="M123.517 59.673C124.583 59.673 125.731 59.9145 126.455 60.1963L127.261 56.9152C126.254 56.5529 124.543 56.3516 123.194 56.3516C119.35 56.3516 116.753 57.8412 116.753 63.095C116.753 68.4093 119.33 69.9996 123.194 69.9996C124.483 69.9996 126.214 69.758 127.261 69.3353L126.455 66.0944C125.711 66.3963 124.624 66.6781 123.517 66.6781C121.624 66.6781 120.658 66.2353 120.658 63.1957C120.658 59.9951 121.624 59.673 123.517 59.673Z" fill="#0F4496"/>
<path d="M134.789 56.3518C131.065 56.3518 128.689 57.8817 128.689 63.0953C128.689 68.4095 131.387 69.9998 135.03 69.9998C136.48 69.9998 138.412 69.718 139.7 69.2952L139.117 66.3362C138.171 66.5777 136.46 66.7589 135.534 66.7589C133.662 66.7589 132.736 66.3764 132.675 64.3031H140.687C141.049 57.6401 139.056 56.3317 134.789 56.3518ZM132.695 61.4446C132.917 59.794 133.319 59.2706 134.95 59.2706C136.48 59.2706 136.943 59.6531 137.003 61.4446H132.695Z" fill="#0F4496"/>
<path d="M61.9312 24.3359C65.7637 27.9694 67.907 31.7164 68.8783 34.8177C68.9965 35.1953 69.0976 35.5634 69.182 35.9204C69.378 36.7492 69.4854 37.5191 69.5158 38.2128C69.5258 38.4408 69.7133 38.6201 69.9415 38.6201H70.7873C71.0156 38.6201 71.203 38.4408 71.213 38.2128C71.2434 37.5191 71.3509 36.7492 71.5468 35.9204C71.6312 35.5634 71.7323 35.1953 71.8506 34.8177C72.8218 31.7164 74.9652 27.9694 78.7976 24.3359C79.0473 24.0992 79.2851 23.8536 79.5119 23.6007C80.9594 21.9864 81.9351 20.0553 82.3715 17.9629H80.6025C80.1265 19.9031 79.105 21.6685 77.6114 23.0846C77.4441 23.2432 77.2763 23.4061 77.1084 23.5729C77.1053 23.5759 77.1023 23.5789 77.0992 23.5819C77.0983 23.5829 77.0973 23.5839 77.0963 23.5849C76.3279 24.3489 75.5566 25.1963 74.8155 26.108C74.5682 26.4123 74.3242 26.7238 74.0848 27.0418C73.9252 27.2537 73.7677 27.4685 73.6125 27.686C73.535 27.7947 73.458 27.9041 73.3816 28.0142C73.1527 28.3443 72.9295 28.6802 72.7134 29.0211C72.5693 29.2484 72.4283 29.4779 72.2909 29.7095C72.016 30.1726 71.755 30.6438 71.511 31.1215C71.1449 31.838 70.8168 32.5691 70.5365 33.309C70.4762 33.4681 70.2527 33.4681 70.1924 33.309C69.8186 32.3225 69.3599 31.3517 68.8395 30.41C67.2782 27.5851 65.1615 25.0225 63.1175 23.0846C60.9913 21.0688 59.8203 18.3459 59.8203 15.4174C59.8203 13.7333 60.2111 12.1105 60.95 10.6515C60.9517 10.6481 60.9536 10.6448 60.9553 10.6414C61.0273 10.4996 61.1027 10.3594 61.1813 10.2208C61.2841 10.0394 61.3928 9.86095 61.5067 9.68538C61.9158 9.05457 62.3951 8.46258 62.9417 7.91989C63.2208 7.64275 63.5129 7.38381 63.8161 7.14218C63.8937 7.08029 63.9721 7.01954 64.0512 6.96001C64.0912 6.92986 64.1314 6.89986 64.1718 6.87034C64.2901 6.78397 64.4098 6.69994 64.5311 6.61885C64.5364 6.61531 64.5415 6.61158 64.5469 6.60805C66.2578 5.4688 68.2639 4.8563 70.3644 4.85219C73.1651 4.85766 75.7979 5.94472 77.7872 7.91987C78.5532 8.68046 79.1878 9.53745 79.6807 10.4634H81.5971C81.5095 10.2646 81.417 10.0678 81.3187 9.8738C81.3168 9.86985 81.3146 9.86599 81.3126 9.86204C81.2289 9.69708 81.1411 9.534 81.0497 9.37274C80.5004 8.4035 79.8148 7.50332 79.0021 6.69637C76.7133 4.42387 73.6927 3.16284 70.4749 3.12936V3.12805C70.46 3.12796 70.4122 3.12793 70.3644 3.12793H70.3432C70.3032 3.12794 70.2666 3.12797 70.254 3.12805V3.12835L70.254 3.12935C67.0362 3.16282 64.0155 4.42387 61.7268 6.69637C60.7038 7.71211 59.8817 8.87534 59.2802 10.1384C58.505 11.7662 58.0962 13.5597 58.0962 15.4174C58.0962 18.3641 59.116 21.1314 60.9919 23.3425C61.2846 23.6875 61.5974 24.0194 61.9312 24.3359Z" fill="#0F4496"/>
<path d="M70.369 21.7906C73.8975 21.7906 76.7682 18.9199 76.7682 15.3914C76.7682 11.8628 73.8975 8.99219 70.369 8.99219C66.8404 8.99219 63.9697 11.8628 63.9697 15.3914C63.9697 18.9199 66.8404 21.7906 70.369 21.7906ZM70.369 10.5849C73.0193 10.5849 75.1755 12.7411 75.1755 15.3914C75.1755 18.0416 73.0193 20.1979 70.369 20.1979C67.7187 20.1979 65.5625 18.0417 65.5625 15.3914C65.5625 12.7411 67.7187 10.5849 70.369 10.5849Z" fill="#95C11F"/>
<path d="M97.6748 31.3006L99.8804 32.1428L100.765 32.4805L105.877 34.4328C105.886 34.4362 105.895 34.4386 105.904 34.4405C105.911 34.4418 105.917 34.4423 105.924 34.4429C105.929 34.4434 105.934 34.4444 105.94 34.4444H117.019C117.133 34.4444 117.196 34.3532 117.194 34.2635C117.194 34.2436 117.19 34.2238 117.183 34.205C117.176 34.1863 117.166 34.1686 117.152 34.1531C117.132 34.1297 117.103 34.1112 117.067 34.1008L109.542 31.9694L106.009 30.9685C105.993 30.9641 105.977 30.9619 105.961 30.9619H97.7373C97.7252 30.9619 97.7136 30.963 97.7026 30.965C97.6806 30.9689 97.661 30.9767 97.6438 30.9872C97.6267 30.9978 97.6121 31.0112 97.6001 31.0265C97.5942 31.0342 97.5889 31.0423 97.5843 31.0508C97.5751 31.0678 97.5686 31.0863 97.5651 31.1053C97.5599 31.1338 97.5612 31.1635 97.5697 31.1913C97.584 31.2377 97.6181 31.2789 97.6748 31.3006Z" fill="#ED1C24"/>
<path d="M38.949 44.0115C38.9522 44.0094 38.9557 44.0077 38.9588 44.0054L41.5498 42.0984L45.5896 39.125C45.7364 39.0169 45.66 38.7842 45.4777 38.7842H36.5862C36.5709 38.7842 36.5557 38.786 36.5409 38.7897C36.5262 38.7933 36.5118 38.7988 36.4983 38.8059L27.2252 43.6863C27.2093 43.6947 27.1961 43.7049 27.1841 43.7157C27.0727 43.8169 27.1252 44.0127 27.2777 44.0392C27.289 44.0411 27.3008 44.0422 27.3131 44.0422H38.8469C38.873 44.0422 38.8984 44.0362 38.9221 44.0259C38.9314 44.0219 38.9403 44.0171 38.949 44.0115Z" fill="#ED1C24"/>
<path d="M44.0875 33.7691H55.3621C55.3792 33.7691 55.3958 33.766 55.4119 33.7612C55.4255 33.7571 55.4389 33.752 55.4512 33.7447C55.4601 33.7395 55.4686 33.7334 55.4765 33.7265L56.5985 32.7583L58.173 31.3995C58.1883 31.3862 58.2006 31.3715 58.21 31.3558C58.2158 31.3461 58.2201 31.336 58.2238 31.3258C58.2615 31.22 58.188 31.0918 58.0585 31.0918H48.97C48.9596 31.0918 48.9493 31.0934 48.9391 31.0952C48.9238 31.098 48.9088 31.1021 48.8947 31.1088L47.9369 31.5653L44.0121 33.4359C43.97 33.456 43.942 33.4868 43.9266 33.5218C43.9189 33.5393 43.9143 33.5578 43.9128 33.5766C43.9048 33.6703 43.9709 33.7691 44.0875 33.7691Z" fill="#0F4496"/>
<path d="M91.9582 5.29395H86.6641V10.5881H91.9582V5.29395Z" fill="#ED1C24"/>
<path d="M86.6638 0H81.3696V5.29412H86.6638V0Z" fill="#0F4496"/>
<path d="M85.36 11.5664H80.0659V16.8605H85.36V11.5664Z" fill="#95C11F"/>
</svg>
