<svg width="14" height="12" viewBox="0 0 14 12" fill="none" xmlns="http://www.w3.org/2000/svg">
<path d="M13.408 2.30035C13.4971 2.19646 13.3809 2.06071 13.249 2.10933C12.9548 2.21787 12.6858 2.28947 12.2881 2.33366C12.7773 2.06126 13.0048 1.67192 13.1899 1.19505C13.2345 1.08003 13.0999 0.975659 12.984 1.03061C12.5131 1.25387 12.005 1.41951 11.4708 1.51737C10.9427 0.994019 10.19 0.666992 9.35729 0.666992C7.75836 0.666992 6.46176 1.87284 6.46176 3.35977C6.46176 3.57087 6.48762 3.77649 6.53642 3.97336C4.23799 3.86627 2.1885 2.88305 0.76461 1.3754C0.667016 1.27207 0.48993 1.28579 0.429163 1.41181C0.267056 1.74805 0.176683 2.12105 0.176683 2.51377C0.176683 3.44782 0.687696 4.27194 1.46451 4.75486C1.11621 4.74439 0.783116 4.67653 0.476156 4.56135C0.326703 4.50529 0.155383 4.60382 0.175463 4.75453C0.329616 5.91179 1.26656 6.86653 2.47595 7.09213C2.23308 7.15393 1.97728 7.18673 1.71266 7.18673C1.6485 7.18673 1.5849 7.18472 1.52187 7.18086C1.36149 7.17092 1.23114 7.31439 1.2999 7.45166C1.75358 8.35713 2.73318 8.98926 3.87315 9.00892C2.88229 9.73132 1.63386 10.1617 0.277236 10.1617C0.109963 10.1617 0.038203 10.3768 0.186603 10.4497C1.33276 11.0131 2.638 11.3337 4.02487 11.3337C9.35082 11.3337 12.2628 7.23053 12.2628 3.67203C12.2628 3.55555 12.2599 3.43907 12.2546 3.32368C12.6869 3.03326 13.0755 2.68792 13.408 2.30035Z" fill="#111928"/>
</svg>
