<svg width="16" height="12" viewBox="0 0 16 12" fill="none" xmlns="http://www.w3.org/2000/svg">
<path d="M15.1975 2.2752C15.0225 1.6002 14.4975 1.0752 13.8225 0.900195C12.6225 0.575195 7.77246 0.575195 7.77246 0.575195C7.77246 0.575195 2.92246 0.575195 1.72246 0.900195C1.04746 1.0752 0.522461 1.6002 0.347461 2.2752C0.0224609 3.5002 0.0224609 6.0002 0.0224609 6.0002C0.0224609 6.0002 0.0224609 8.52519 0.347461 9.72519C0.522461 10.4002 1.04746 10.9252 1.72246 11.1002C2.92246 11.4252 7.77246 11.4252 7.77246 11.4252C7.77246 11.4252 12.6225 11.4252 13.8225 11.1002C14.4975 10.9252 15.0225 10.4002 15.1975 9.72519C15.5225 8.52519 15.5225 6.0002 15.5225 6.0002C15.5225 6.0002 15.5225 3.5002 15.1975 2.2752ZM6.22246 8.32519V3.6752L10.2475 6.0002L6.22246 8.32519Z" fill="#111928"/>
</svg>
